<svg width="9" height="9" viewBox="0 0 9 9" fill="none" xmlns="http://www.w3.org/2000/svg">
<path d="M-6.10352e-05 4.5C-6.10352e-05 6.98528 2.01466 9 4.49994 9C6.98522 9 8.99994 6.98528 8.99994 4.5C8.99994 2.01472 6.98522 0 4.49994 0C2.01466 0 -6.10352e-05 2.01472 -6.10352e-05 4.5ZM7.79071 4.5C7.79071 6.31744 6.31738 7.79077 4.49994 7.79077C2.6825 7.79077 1.20917 6.31744 1.20917 4.5C1.20917 2.68256 2.6825 1.20923 4.49994 1.20923C6.31738 1.20923 7.79071 2.68256 7.79071 4.5Z" fill="#6D5D43"/>
<path d="M1.99994 4.5C1.99994 5.88071 3.11923 7 4.49994 7C5.88065 7 6.99994 5.88071 6.99994 4.5C6.99994 3.11929 5.88065 2 4.49994 2C3.11923 2 1.99994 3.11929 1.99994 4.5Z" fill="#6D5D43"/>
</svg>
