<svg width="285" height="35" viewBox="0 0 285 35" fill="none" xmlns="http://www.w3.org/2000/svg">
<g clip-path="url(#clip0_1_26)">
<path d="M61.5129 8.19475C63.5727 8.14926 65.6154 8.57657 67.4842 9.44384C69.0946 10.214 70.4409 11.4437 71.3533 12.9779C72.3009 14.6248 72.7753 16.5014 72.7243 18.4007C72.7777 20.3197 72.3035 22.2165 71.3533 23.8846C70.4409 25.4188 69.0946 26.6484 67.4842 27.4186C65.8086 28.2411 63.8283 28.6372 61.5129 28.6372H54.5668L54.5363 27.4186H61.1778C62.4731 27.455 63.7453 27.0701 64.8032 26.3218C65.8649 25.5174 66.678 24.4298 67.1491 23.1838C67.7243 21.6561 68.0035 20.0329 67.9716 18.4007C68.0061 16.7684 67.7268 15.1447 67.1491 13.6176C66.6878 12.3747 65.8722 11.2943 64.8032 10.5101C63.7539 9.74442 62.4756 9.35772 61.1778 9.41338H54.2286V8.19475H61.5129ZM57.5524 8.19475V28.6677H53.1653V8.19475H57.5524ZM53.2567 26.5351V28.6677H50.9109V28.363H51.2765C51.7632 28.36 52.2295 28.1673 52.5765 27.826C52.9235 27.4848 53.1238 27.0217 53.1349 26.5351H53.2567ZM53.2567 10.3273H53.1653C53.169 10.0875 53.1221 9.84957 53.0276 9.62909C52.9331 9.40861 52.7932 9.21053 52.617 9.04779C52.4482 8.87104 52.2447 8.73108 52.0193 8.63671C51.7938 8.54234 51.5513 8.4956 51.3069 8.49941H50.9718L50.9414 8.19475H53.2872L53.2567 10.3273ZM81.1937 8.19475V28.6677H76.8067V8.19475H81.1937ZM88.9015 27.4186L89.6023 28.6677H81.1023V27.4186H88.9015ZM87.8353 17.9742V19.1928H81.1023V17.9742H87.8353ZM89.2641 8.19475V9.44384H81.0993V8.19475H89.2641ZM91.0616 22.6659L89.7211 28.6677H83.9935L85.0598 27.4186C85.929 27.4486 86.7922 27.2642 87.5733 26.8817C88.3543 26.4991 89.0292 25.9302 89.5383 25.225C90.0925 24.4465 90.5146 23.5819 90.7874 22.6659H91.0616ZM87.8322 19.1319V21.9348H87.5275V21.691C87.5368 21.3598 87.4795 21.0301 87.3591 20.7214C87.2388 20.4126 87.0578 20.1312 86.8268 19.8936C86.3422 19.4306 85.6996 19.1692 85.0294 19.1624V19.1015L87.8322 19.1319ZM87.8322 15.2018V18.0047H85.0598V17.9438C85.3799 17.9519 85.6985 17.8968 85.9973 17.7818C86.2961 17.6667 86.5693 17.4939 86.8013 17.2732C87.0333 17.0525 87.2195 16.7883 87.3494 16.4956C87.4792 16.2029 87.5501 15.8875 87.558 15.5674V15.2018H87.8322ZM89.2641 9.35245V12.7646H88.9594V12.399C88.9718 12.002 88.9055 11.6065 88.7643 11.2353C88.6231 10.864 88.4099 10.5244 88.1369 10.236C87.8541 9.95298 87.5162 9.73122 87.144 9.58447C86.7719 9.43772 86.3736 9.36911 85.9738 9.38291V9.32198L89.2641 9.35245ZM89.2641 7.67684V8.52988L85.6996 8.19475C86.148 8.19569 86.596 8.16515 87.0401 8.10336C87.5275 8.04242 87.9845 7.98149 88.3806 7.8901C88.682 7.8515 88.9783 7.77999 89.2641 7.67684ZM76.895 26.5351V28.6677H74.5492V28.363H74.9148C75.4015 28.36 75.8678 28.1673 76.2148 27.826C76.5618 27.4848 76.7621 27.0217 76.7732 26.5351H76.895ZM76.895 10.3273H76.8036C76.8018 10.0855 76.7493 9.84669 76.6496 9.62633C76.5499 9.40596 76.4052 9.20889 76.2248 9.04779C76.0665 8.86604 75.8692 8.72234 75.6477 8.6274C75.4261 8.53245 75.186 8.4887 74.9452 8.49941H74.5796V8.19475H76.9255V10.3273H76.895ZM121.192 20.4724V25.286C120.586 25.979 119.877 26.5749 119.09 27.053C118.065 27.688 116.958 28.18 115.8 28.5153C114.403 28.9108 112.955 29.0956 111.504 29.0637C109.48 29.1131 107.473 28.6743 105.655 27.7842C104.04 26.9352 102.699 25.6466 101.785 24.0674C100.834 22.3335 100.361 20.3778 100.415 18.4007C100.415 16.2072 100.871 14.3183 101.755 12.7646C102.665 11.1876 104.022 9.91549 105.655 9.10872C107.519 8.19117 109.579 7.74154 111.656 7.7987C113.661 7.83249 115.654 8.0983 117.597 8.59081C118.34 8.77412 119.056 9.0505 119.73 9.41338L119.791 14.4097H119.516C119.239 13.2458 118.697 12.1615 117.932 11.2413C117.265 10.4758 116.416 9.88938 115.465 9.53524C114.53 9.18163 113.539 9.00596 112.54 9.01732C111.119 8.95717 109.717 9.35768 108.542 10.1592C107.367 10.9607 106.482 12.1203 106.02 13.4653C105.444 15.1089 105.165 16.8421 105.198 18.5835C105.16 20.2507 105.418 21.9113 105.959 23.4885C106.391 24.7641 107.185 25.8862 108.244 26.7179C109.301 27.4751 110.57 27.8801 111.87 27.8756C112.573 27.8708 113.272 27.7578 113.941 27.5404C114.598 27.3206 115.208 26.9796 115.739 26.5351C116.234 26.1164 116.604 25.5678 116.805 24.9509L116.835 20.4724C116.835 19.5889 116.348 19.1624 115.343 19.1624H114.886V18.8577H123.111V19.1624H122.685C121.652 19.1624 121.165 19.5889 121.195 20.4724H121.192ZM130.606 8.19475V21.0513C130.583 22.2826 130.811 23.5057 131.276 24.6462C131.681 25.6255 132.379 26.4557 133.274 27.0229C134.169 27.5901 135.217 27.8667 136.276 27.8146C137.351 27.8378 138.413 27.575 139.353 27.053C140.232 26.5313 140.933 25.7561 141.363 24.829C141.851 23.7698 142.091 22.6132 142.064 21.4473V8.19475H144.166V21.2645C144.211 22.7149 143.853 24.1492 143.13 25.4078C142.469 26.589 141.458 27.5363 140.236 28.1193C138.816 28.7809 137.263 29.1042 135.697 29.0637C133.625 29.0637 131.889 28.7591 130.457 28.1193C129.141 27.5617 128.018 26.6293 127.227 25.4383C126.499 24.1808 126.13 22.7477 126.161 21.295V8.19475H130.606ZM126.31 8.19475V9.96176H126.219C126.224 9.76601 126.186 9.57149 126.107 9.39233C126.028 9.21316 125.91 9.05384 125.762 8.92593C125.473 8.65488 125.092 8.50262 124.696 8.49941H124.239V8.19475H126.31ZM132.647 8.19475V8.49941H132.19C131.788 8.49108 131.397 8.6322 131.093 8.89546C130.945 9.02951 130.827 9.19428 130.748 9.37838C130.669 9.56249 130.631 9.76154 130.636 9.96176H130.576V8.19475H132.647ZM142.183 8.19475V9.96176H142.092C142.097 9.76601 142.059 9.57149 141.98 9.39233C141.901 9.21316 141.783 9.05384 141.635 8.92593C141.345 8.65488 140.965 8.50262 140.568 8.49941H140.111V8.19475H142.183ZM146.204 8.19475V8.49941H145.747C145.345 8.49108 144.955 8.6322 144.651 8.89546C144.5 9.02691 144.383 9.19206 144.309 9.37739C144.235 9.56272 144.206 9.76298 144.224 9.96176H144.133V8.19475H146.204ZM156.289 7.61591L165.855 28.5153H160.584L154.491 13.2825L156.289 7.61591ZM149.982 26.5351C149.83 26.8479 149.798 27.2054 149.891 27.5404C149.981 27.8 150.152 28.0241 150.378 28.1802C150.59 28.3101 150.831 28.3835 151.079 28.3935H151.353V28.6981H145.108V28.3935H145.382C145.866 28.3887 146.34 28.2517 146.753 27.9974C147.288 27.6557 147.704 27.1551 147.941 26.5655L149.982 26.5351ZM156.289 7.61591L156.41 11.1804L149.16 28.5763H147.027L154.613 11.4241C154.674 11.3022 154.765 11.089 154.918 10.7843C155.07 10.4797 155.222 10.0836 155.375 9.68757C155.527 9.29152 155.71 8.89546 155.832 8.52988C155.946 8.23688 156.017 7.92913 156.045 7.61591H156.289ZM159.366 21.691V22.9097H150.744V21.691H159.366ZM159.792 26.5046H164.91C165.175 27.0771 165.585 27.5707 166.098 27.9365C166.512 28.1872 166.985 28.3238 167.469 28.3325H167.713V28.6372H158.391V28.3325H158.665C159.057 28.3234 159.43 28.1591 159.701 27.8756C160.005 27.5709 160.036 27.1139 159.792 26.5046ZM174.477 8.16429H178.254C179.127 8.16028 179.996 8.26259 180.844 8.46894C181.637 8.64298 182.392 8.96325 183.068 9.41338C183.737 9.83269 184.283 10.4212 184.652 11.1195C185.069 11.9169 185.269 12.81 185.231 13.709C185.227 14.5581 185.05 15.3976 184.713 16.1768C184.368 17.0444 183.784 17.7967 183.029 18.3466C182.274 18.8965 181.38 19.2216 180.448 19.2842C181.092 19.502 181.676 19.8671 182.154 20.3505C182.637 20.8077 183.067 21.3188 183.433 21.8738C183.464 21.9043 183.555 22.0871 183.738 22.3917C183.921 22.6964 184.195 23.0925 184.5 23.5494C184.804 24.0064 185.139 24.4634 185.475 24.9204C185.81 25.3774 186.114 25.8039 186.389 26.139C186.751 26.5865 187.137 27.0137 187.546 27.4186C187.865 27.7181 188.237 27.9557 188.643 28.1193C189.077 28.2618 189.528 28.3438 189.984 28.363V28.6677H187.089C186.128 28.6685 185.169 28.5767 184.226 28.3935C183.411 28.2092 182.637 27.8789 181.941 27.4186C181.243 26.9343 180.652 26.3122 180.204 25.5906C180.016 25.3053 179.843 25.0104 179.686 24.7071C179.503 24.3415 179.321 23.9455 179.138 23.5494C178.955 23.1534 178.742 22.7573 178.559 22.3917C178.386 22.0453 178.234 21.6893 178.102 21.3254C177.98 20.9903 177.858 20.7771 177.797 20.5943C177.599 20.0658 177.287 19.5874 176.883 19.1928C176.606 18.8973 176.244 18.695 175.847 18.614V18.3093H176.761C177.285 18.3143 177.804 18.2106 178.285 18.0047C178.812 17.7645 179.272 17.3983 179.625 16.9384C180.051 16.3549 180.323 15.674 180.417 14.9581C180.448 14.7449 180.478 14.5621 180.509 14.3488C180.549 14.0868 180.559 13.821 180.539 13.5567C180.478 12.1553 180.143 11.1195 179.473 10.4797C179.166 10.1493 178.793 9.8866 178.379 9.70826C177.964 9.52992 177.517 9.43987 177.066 9.44384C176.762 9.4133 176.456 9.4133 176.152 9.44384H174.751C174.72 9.32198 174.69 9.23058 174.659 9.10872C174.623 8.89228 174.572 8.67853 174.507 8.46894C174.47 8.37183 174.46 8.26675 174.477 8.16429ZM174.873 8.16429V28.6372H170.485V8.19475L174.873 8.16429ZM170.546 26.5351V28.6677H168.201V28.363H168.566C169.053 28.36 169.519 28.1673 169.866 27.826C170.213 27.4848 170.413 27.0217 170.425 26.5351H170.546ZM170.546 10.3273H170.455C170.453 10.0855 170.401 9.84669 170.301 9.62633C170.201 9.40596 170.057 9.20889 169.876 9.04779C169.718 8.86604 169.521 8.72234 169.299 8.6274C169.078 8.53245 168.837 8.4887 168.597 8.49941H168.201V8.19475H170.546V10.3273ZM174.751 26.5351H174.842C174.848 27.0263 175.045 27.496 175.39 27.8451C175.567 28.0175 175.777 28.1523 176.008 28.2413C176.238 28.3303 176.484 28.3717 176.731 28.363H177.097V28.6677H174.781L174.751 26.5351ZM200.25 8.19475C202.31 8.14599 204.354 8.57345 206.222 9.44384C207.832 10.214 209.178 11.4437 210.091 12.9779C211.005 14.5011 211.462 16.2986 211.462 18.4312C211.515 20.3502 211.041 22.247 210.091 23.915C209.178 25.4492 207.832 26.6789 206.222 27.449C204.546 28.2716 202.566 28.6677 200.25 28.6677H193.274L193.243 27.449H199.885C201.18 27.4855 202.452 27.1006 203.51 26.3523C204.581 25.5565 205.396 24.4661 205.856 23.2143C206.434 21.6767 206.713 20.043 206.679 18.4007C206.713 16.7684 206.434 15.1447 205.856 13.6176C205.395 12.3747 204.579 11.2943 203.51 10.5101C202.452 9.76181 201.18 9.37695 199.885 9.41338H192.969V8.19475H200.25ZM196.259 8.19475V28.6677H191.872V8.19475H196.259ZM191.964 26.5351V28.6677H189.618V28.363H189.984C190.47 28.36 190.937 28.1673 191.284 27.826C191.631 27.4848 191.831 27.0217 191.842 26.5351H191.964ZM191.964 10.3273H191.872C191.876 10.0875 191.829 9.84957 191.735 9.62909C191.64 9.40861 191.5 9.21053 191.324 9.04779C191.155 8.87104 190.952 8.73108 190.726 8.63671C190.501 8.54234 190.258 8.4956 190.014 8.49941H189.648L189.618 8.19475H191.964V10.3273ZM219.901 8.19475V28.6677H215.514V8.19475H219.901ZM215.605 26.5351V28.6677H213.29V28.363H213.655C214.142 28.36 214.608 28.1673 214.955 27.826C215.302 27.4848 215.503 27.0217 215.514 26.5351H215.605ZM215.605 10.3273H215.514C215.512 10.0855 215.459 9.84669 215.36 9.62633C215.26 9.40596 215.115 9.20889 214.935 9.04779C214.777 8.86604 214.579 8.72234 214.358 8.6274C214.136 8.53245 213.896 8.4887 213.655 8.49941H213.29V8.19475H215.636L215.605 10.3273ZM219.84 26.5351H219.931C219.951 27.0233 220.146 27.4881 220.48 27.8451C220.835 28.1773 221.303 28.3623 221.79 28.363H222.155V28.6677H219.809L219.84 26.5351ZM219.84 10.3273V8.19475H222.186V8.49941H221.82C221.576 8.4956 221.333 8.54234 221.108 8.63671C220.882 8.73108 220.679 8.87104 220.51 9.04779C220.166 9.38528 219.969 9.84519 219.962 10.3273H219.84ZM233.549 7.61591L243.116 28.4849H237.845L231.752 13.252L233.549 7.61591ZM227.243 26.5351C227.091 26.8479 227.059 27.2054 227.152 27.5404C227.242 27.8 227.413 28.0241 227.639 28.1802C227.851 28.3101 228.092 28.3835 228.34 28.3935H228.614V28.6981H222.338V28.3935H222.612C223.097 28.3887 223.571 28.2517 223.983 27.9974C224.519 27.6557 224.934 27.1551 225.171 26.5655L227.243 26.5351ZM233.549 7.61591L233.671 11.1804L226.39 28.5763H224.257L231.843 11.4241C231.904 11.3022 231.996 11.089 232.148 10.7843C232.3 10.4797 232.453 10.0836 232.605 9.68757C232.757 9.29152 232.94 8.89546 233.062 8.52988C233.176 8.23688 233.248 7.92913 233.275 7.61591H233.549ZM236.596 21.691V22.9097H228.005V21.691H236.596ZM237.053 26.5351H242.171C242.436 27.1076 242.845 27.6012 243.359 27.967C243.773 28.2177 244.246 28.3543 244.73 28.363H244.974V28.6677H235.682V28.363H235.956C236.348 28.3539 236.721 28.1896 236.992 27.906C237.269 27.5709 237.3 27.1139 237.056 26.5351H237.053ZM247.32 7.73777L265.965 25.5297L266.33 29.0637L247.655 11.3327L247.32 7.73777ZM247.442 26.596V28.6677H245.004V28.363H245.583C246.052 28.3554 246.501 28.1678 246.835 27.8389C247.17 27.5099 247.365 27.0649 247.381 26.596H247.442ZM251.555 26.596C251.556 26.8303 251.603 27.062 251.694 27.2779C251.786 27.4937 251.918 27.6894 252.086 27.8536C252.253 28.0178 252.451 28.1474 252.668 28.2348C252.885 28.3223 253.118 28.3658 253.352 28.363H253.9V28.6677H251.463V26.5655L251.555 26.596ZM247.32 7.73777L251.524 12.2162L251.555 28.6677H247.381V11.3936C247.397 10.5166 247.336 9.6399 247.198 8.7736C247.076 8.10336 247.015 7.73777 247.015 7.73777H247.32ZM266.239 8.19475V25.3469C266.235 25.998 266.266 26.6488 266.33 27.2967C266.391 27.8756 266.452 28.3021 266.513 28.6067L266.605 29.0637H266.33L262.096 24.3111V8.16429L266.239 8.19475ZM268.585 8.19475V8.49941H268.067C267.834 8.49422 267.603 8.5376 267.388 8.62677C267.173 8.71594 266.979 8.84896 266.818 9.01732C266.479 9.34621 266.282 9.79446 266.269 10.2664H266.178V8.16429H268.585V8.19475ZM259.719 8.19475H262.157V10.2664H262.096C262.095 10.0317 262.046 9.79952 261.952 9.58456C261.858 9.36961 261.72 9.17649 261.547 9.01732C261.387 8.84804 261.193 8.71442 260.978 8.62518C260.763 8.53594 260.531 8.49308 260.298 8.49941H259.75L259.719 8.19475ZM277.572 7.76823C277.968 7.76823 278.425 7.7987 279.004 7.82916C279.583 7.85963 280.192 7.92056 280.802 8.01196C281.411 8.10336 281.959 8.13382 282.416 8.22522C282.749 8.25238 283.077 8.3241 283.391 8.43848L283.026 12.399H282.721C282.736 11.9299 282.639 11.464 282.438 11.0401C282.236 10.6161 281.936 10.2464 281.563 9.96176C280.711 9.3035 279.653 8.96884 278.578 9.01732C277.598 8.97934 276.633 9.26875 275.836 9.8399C275.52 10.07 275.258 10.3665 275.068 10.7086C274.879 11.0507 274.766 11.4301 274.739 11.8202C274.72 12.3794 274.916 12.9245 275.287 13.3434C275.721 13.8135 276.225 14.2142 276.78 14.5316L282.355 18.157C283.219 18.6186 283.928 19.3239 284.394 20.1852C284.859 21.0464 285.062 22.0257 284.975 23.0011C284.884 24.9204 284.153 26.3827 282.782 27.449C281.411 28.5153 279.556 29.0333 277.237 29.0333C276.389 29.0276 275.542 28.9461 274.708 28.7895C273.979 28.6719 273.264 28.4779 272.576 28.2107C272.017 27.9918 271.508 27.6599 271.083 27.2358C270.921 26.7345 270.849 26.2085 270.87 25.682C270.901 25.0652 270.993 24.453 271.144 23.8541C271.294 23.3122 271.508 22.7905 271.784 22.3003H272.058C271.954 23.2518 272.133 24.2128 272.572 25.0634C273.011 25.9139 273.69 26.6165 274.526 27.0835C275.454 27.6006 276.511 27.8435 277.572 27.7842C278.852 27.7537 279.857 27.449 280.558 26.8093C280.891 26.5218 281.158 26.1664 281.342 25.7671C281.526 25.3677 281.622 24.9336 281.624 24.4939C281.624 23.9006 281.432 23.3233 281.076 22.8487C280.594 22.2602 279.991 21.7823 279.309 21.4473L274.191 18.0656C273.234 17.5512 272.451 16.7673 271.936 15.8112C271.466 14.8906 271.276 13.8529 271.388 12.8255C271.474 11.8812 271.787 10.9717 272.302 10.175C272.816 9.39086 273.531 8.75947 274.373 8.34708C275.395 7.9557 276.481 7.75936 277.575 7.76823H277.572ZM283.391 8.07289L283.33 8.6822H279.857V8.07289H283.391Z" fill="#F6F6F6"/>
<path d="M2.28491 7.49396L20.9299 25.2859L21.2955 28.8199L2.62003 11.0889L2.28491 7.49396Z" fill="#F6F6F6"/>
<path d="M2.43725 26.3522V28.4239H0V28.1192H0.548382C0.785293 28.1216 1.02034 28.0771 1.23995 27.9882C1.45957 27.8993 1.65941 27.7678 1.82794 27.6013C2.15852 27.2695 2.34466 26.8206 2.34585 26.3522H2.43725Z" fill="#F6F6F6"/>
<path d="M6.5195 26.3523C6.52734 26.8265 6.71923 27.2792 7.05464 27.6146C7.39005 27.95 7.8427 28.1419 8.31697 28.1497H8.86535V28.4544H6.4281V26.3523H6.5195Z" fill="#F6F6F6"/>
<path d="M2.28488 7.49396L6.48914 11.9724L6.51961 28.4239H2.34581V11.1498C2.37712 10.2725 2.31585 9.39429 2.16302 8.52979L1.98022 7.49396H2.28488Z" fill="#F6F6F6"/>
<path d="M21.1737 7.9509V25.0726C21.1701 25.7237 21.2006 26.3745 21.2651 27.0224C21.3261 27.6012 21.387 28.0582 21.4479 28.3324L21.5393 28.7894H21.2651L17.0304 24.0977V7.9509H21.1737Z" fill="#F6F6F6"/>
<path d="M22.9742 7.95097V8.25562H22.4563C22.2235 8.25044 21.9922 8.29381 21.7771 8.38299C21.5621 8.47216 21.368 8.60517 21.2072 8.77354C20.8684 9.10243 20.6716 9.55067 20.6588 10.0226H20.5674V7.9205H22.9742V7.95097Z" fill="#F6F6F6"/>
<path d="M14.6842 7.9509H17.1215V10.0226H17.0605C17.0601 9.7878 17.0112 9.55566 16.9169 9.34071C16.8225 9.12576 16.6847 8.93263 16.5121 8.77347C16.352 8.59584 16.1537 8.45691 15.932 8.36719C15.7103 8.27747 15.4712 8.23929 15.2326 8.25555H14.6842V7.9509Z" fill="#F6F6F6"/>
<path fill-rule="evenodd" clip-rule="evenodd" d="M49.2599 16.7982H48.2515L45.8874 19.9879H45.2232L45.0404 17.9406L45.5949 16.3442L46.2073 12.1156L45.4913 11.7957L44.5621 6.18395L40.2878 2.91194L39.0143 0.0908203H35.328L34.0545 2.91194L29.7802 6.18395L28.851 11.7957L28.1351 12.1156L28.7474 16.3442L29.3049 17.9406L29.1191 19.9879H28.455L26.0939 16.7982H25.0854L25.7222 21.1852L28.6652 25.0422L27.605 25.816L37.0524 34.9131L36.9183 34.1697L28.4001 21.8768L30.2585 21.106L36.8391 25.9226L37.0524 25.6028L36.574 14.8819L31.3461 12.7523L31.7178 15.1469L35.8063 17.0084L36.5466 24.832L36.3882 24.9386L30.6302 20.0702L30.9501 17.4075L30.1275 15.8111L29.7802 12.5147L30.3134 12.1156L30.6302 12.1674L36.9975 3.94777L30.4718 11.0249L31.0293 7.06136L35.1147 3.89598L35.9373 1.20891H38.405L39.2276 3.89598L43.3161 7.06136L43.8706 11.0249L37.3448 3.94777L43.7121 12.1674L44.032 12.1156L44.5621 12.5147L44.2148 15.8111L43.3953 17.4075L43.7121 20.0702L37.9541 24.9386L37.7957 24.832L38.5391 17.0084L42.6245 15.1469L42.9962 12.7523L37.7683 14.8819L37.29 25.6028L37.5032 25.9226L44.0838 21.106L45.9422 21.8768L37.424 34.1697L37.29 34.9131L46.7374 25.816L45.6772 25.0422L48.6202 21.1852L49.2599 16.7982Z" fill="#F6F6F6"/>
</g>
<defs>
<clipPath id="clip0_1_26">
<rect width="285" height="34.8222" fill="white" transform="translate(0 0.0908203)"/>
</clipPath>
</defs>
</svg>
